<svg width="420" height="512" viewBox="0 0 420 512" fill="none" xmlns="http://www.w3.org/2000/svg">
<path fill-rule="evenodd" clip-rule="evenodd" d="M183 8C183 3.58172 186.582 0 191 0H223C227.418 0 231 3.58172 231 8V45.2354C223.359 43.1266 215.311 42 207 42C198.689 42 190.641 43.1266 183 45.2354V8ZM150.029 201.677L99.6922 310.405C117.762 317.162 136.671 322.197 156.221 325.312L202.599 221.894C182.695 220.936 164.487 213.512 150.029 201.677ZM216.451 221.51L261.848 323.13C281.551 319.141 300.541 313.189 318.607 305.487L269.581 196.681C255.511 210.297 237.01 219.364 216.451 221.51ZM272.28 346.48L346 511.5L367.5 414L328.881 328.29C310.81 336.03 291.882 342.154 272.28 346.48ZM89.1584 333.158C107.26 340.05 126.149 345.347 145.654 348.876L72.5 512L51.5 414.5L89.1584 333.158Z" fill="white"/>
<path fill-rule="evenodd" clip-rule="evenodd" d="M396.078 214.048C347.889 265.703 279.216 298 203 298C163.117 298 125.3 289.156 91.4022 273.322L78.3276 301.361C134.789 327.689 198.135 335.467 259.289 323.58C320.442 311.693 376.262 280.751 418.749 235.19L396.078 214.048Z" fill="white"/>
<path fill-rule="evenodd" clip-rule="evenodd" d="M207 200C244.555 200 275 169.555 275 132C275 94.4446 244.555 64 207 64C169.445 64 139 94.4446 139 132C139 169.555 169.445 200 207 200ZM207 160.333C222.648 160.333 235.333 147.648 235.333 132C235.333 116.352 222.648 103.667 207 103.667C191.352 103.667 178.667 116.352 178.667 132C178.667 147.648 191.352 160.333 207 160.333Z" fill="white"/>
</svg>
